<?xml version="1.0" standalone="no"?>
<!DOCTYPE svg PUBLIC "-//W3C//DTD SVG 20010904//EN"
 "http://www.w3.org/TR/2001/REC-SVG-20010904/DTD/svg10.dtd">
<svg version="1.0" xmlns="http://www.w3.org/2000/svg"
 width="665.000000pt" height="752.000000pt" viewBox="0 0 665.000000 752.000000"
 preserveAspectRatio="xMidYMid meet">

<g transform="translate(0.000000,752.000000) scale(0.100000,-0.100000)"
fill="#000000" stroke="none">
<path d="M3082 6667 c-12 -13 -22 -29 -22 -35 0 -7 -4 -12 -10 -12 -5 0 -10
-7 -10 -15 0 -8 -4 -23 -9 -33 -9 -19 -29 -65 -41 -97 -4 -11 -18 -42 -31 -70
-30 -66 -33 -73 -69 -185 -17 -52 -35 -103 -40 -112 -6 -10 -10 -29 -10 -43 0
-14 -4 -25 -10 -25 -5 0 -10 -9 -10 -20 0 -10 -4 -29 -9 -42 -5 -13 -15 -43
-22 -68 -25 -85 -61 -165 -87 -194 -30 -33 -27 -31 47 19 29 19 46 35 37 35
-17 0 -22 30 -7 45 5 6 18 39 30 75 12 36 26 73 31 82 6 10 10 27 10 37 0 24
12 33 70 48 l45 12 -41 -5 c-23 -3 -45 -1 -48 4 -5 8 3 40 24 97 5 11 13 36
20 55 7 19 17 46 22 60 11 26 18 45 38 97 7 18 20 34 29 37 37 10 218 17 240
9 25 -10 57 -92 80 -208 7 -33 17 -74 22 -92 5 -17 12 -44 14 -60 11 -63 36
-175 50 -220 11 -34 -16 -30 -81 12 -85 54 -186 95 -237 95 -14 0 -39 -5 -54
-12 -33 -15 -170 -104 -197 -130 -11 -10 -23 -18 -28 -18 -4 0 -8 -5 -8 -11 0
-6 15 0 33 13 17 14 72 50 121 81 77 49 97 57 137 57 55 0 107 -21 210 -83 41
-24 94 -55 119 -67 25 -12 55 -28 67 -34 13 -6 23 -14 23 -18 0 -5 6 -8 13 -8
21 0 57 -39 57 -60 0 -28 -16 -25 -70 15 -48 35 -94 61 -259 146 -96 50 -157
62 -199 40 -9 -5 -41 -20 -69 -33 -29 -13 -53 -26 -53 -30 0 -7 43 9 110 40
57 27 105 19 221 -40 140 -71 288 -168 289 -190 0 -11 -26 -32 -75 -59 -41
-22 -78 -46 -83 -53 -4 -7 -27 -27 -51 -44 -81 -59 -23 -34 115 49 45 27 86
49 92 49 18 0 49 53 56 96 9 49 -3 63 -101 125 -50 30 -63 44 -63 63 0 14 -4
28 -10 31 -5 3 -10 24 -10 45 0 21 -4 42 -10 45 -5 3 -10 21 -10 40 0 19 -4
37 -10 40 -5 3 -10 17 -10 30 0 13 -7 50 -16 82 -16 57 -28 117 -40 201 -4 23
-11 45 -15 48 -5 3 -9 18 -9 34 0 16 -4 32 -10 35 -5 3 -10 19 -10 35 0 16 -4
32 -10 35 -5 3 -10 17 -10 31 0 13 -4 24 -10 24 -5 0 -10 7 -10 15 0 8 -4 15
-10 15 -5 0 -10 5 -10 11 0 13 -19 32 -47 47 -35 19 -77 14 -101 -11z m78 -10
c0 -7 9 -19 20 -27 11 -8 20 -22 20 -32 0 -10 5 -18 10 -18 6 0 10 -7 10 -15
0 -8 4 -23 9 -33 36 -70 38 -98 6 -86 -7 3 -57 0 -110 -6 -108 -13 -126 -7
-108 32 72 155 99 198 124 198 11 0 19 -6 19 -13z"/>
<path d="M2988 6082 c-10 -4 52 -7 137 -8 107 0 159 -4 167 -12 13 -13 68 -17
68 -4 0 23 -322 44 -372 24z"/>
<path d="M2878 5766 c-21 -11 -38 -25 -38 -29 0 -8 63 25 85 45 17 15 -9 7
-47 -16z"/>
<path d="M2792 5715 c-16 -19 -3 -19 22 0 14 11 16 15 5 15 -8 -1 -20 -7 -27
-15z"/>
<path d="M3005 5719 c-175 -26 -197 -38 -171 -90 15 -30 15 -33 -9 -61 -33
-39 -26 -92 16 -127 16 -13 29 -29 29 -36 0 -6 11 -22 25 -35 30 -29 32 -50 4
-50 -58 0 -98 -47 -99 -115 0 -46 -7 -60 -80 -170 -64 -96 -80 -127 -80 -157
0 -20 -4 -40 -10 -43 -13 -8 -87 62 -192 182 -88 102 -88 103 -92 163 -4 69
-20 99 -78 141 -35 25 -50 29 -87 27 -37 -2 -48 -8 -60 -29 -13 -24 -12 -30 7
-69 24 -49 21 -60 -13 -60 -17 0 -29 9 -39 29 -17 33 -76 86 -105 96 -32 10
-96 -12 -110 -39 -17 -30 -9 -52 34 -100 19 -21 35 -48 35 -59 0 -31 -100
-124 -147 -136 -29 -8 -49 -24 -77 -61 -22 -28 -60 -65 -85 -82 -25 -18 -64
-46 -86 -64 -22 -17 -58 -41 -80 -52 -70 -35 -109 -139 -76 -200 20 -38 127
-77 231 -85 40 -2 32 14 90 -206 86 -325 229 -597 388 -734 37 -32 42 -69 15
-120 -12 -23 -17 -56 -16 -122 0 -116 28 -464 43 -535 6 -30 17 -107 26 -170
8 -63 20 -133 26 -155 6 -22 12 -87 12 -145 2 -118 30 -354 56 -470 5 -25 14
-76 20 -115 5 -38 14 -103 20 -144 l10 -74 -41 -44 c-38 -41 -40 -47 -34 -86
4 -23 11 -46 16 -52 14 -14 11 -53 -5 -62 -18 -11 -108 -280 -101 -303 7 -22
57 -43 146 -60 53 -10 76 -11 114 -1 46 12 101 42 117 66 20 27 31 92 38 225
4 80 13 165 20 190 20 73 18 365 -3 494 -12 72 -17 136 -13 185 3 42 8 115 12
164 5 73 3 98 -14 150 -25 75 -42 241 -42 399 0 102 2 118 21 142 11 14 29 26
39 26 54 0 70 -114 56 -390 -13 -258 -12 -297 12 -367 12 -34 31 -124 42 -200
40 -280 61 -418 66 -432 2 -8 -4 -20 -15 -27 -27 -19 -61 -97 -61 -140 0 -20
7 -50 15 -68 14 -30 14 -38 -16 -137 -17 -57 -36 -121 -42 -142 -19 -65 12
-86 159 -106 65 -10 81 -9 111 6 59 28 100 76 118 140 9 32 22 64 28 71 13 16
11 576 -3 642 -5 25 -14 86 -21 135 -6 50 -21 127 -34 171 -18 69 -21 92 -13
145 6 42 5 79 -2 108 -15 59 -8 82 70 251 38 80 76 180 87 223 15 67 21 77 38
75 11 -2 30 -22 44 -47 23 -42 25 -59 32 -240 4 -108 4 -236 1 -286 -9 -147
-6 -175 27 -280 35 -113 40 -202 15 -275 -29 -85 -97 -214 -134 -255 -21 -22
-42 -50 -49 -62 -14 -27 -14 -83 -1 -118 7 -18 5 -43 -6 -88 -9 -34 -19 -80
-24 -102 -4 -22 -17 -69 -29 -105 l-21 -65 22 -18 c17 -14 31 -17 58 -13 19 4
68 13 108 20 137 25 157 56 167 266 8 166 6 160 145 459 61 132 71 199 50 336
l-13 83 31 66 c17 36 37 66 45 66 16 0 118 -192 148 -278 21 -60 24 -112 10
-140 -12 -23 -52 -112 -62 -139 -5 -13 -14 -35 -20 -50 -7 -16 -16 -39 -22
-53 -5 -14 -13 -33 -18 -42 -5 -10 -9 -25 -9 -34 0 -9 -16 -38 -35 -64 -26
-36 -35 -58 -35 -89 0 -22 -7 -57 -16 -78 -43 -100 -58 -131 -85 -171 -16 -24
-29 -47 -29 -52 0 -5 24 -22 53 -36 44 -23 65 -27 142 -28 114 -1 140 11 177
83 23 44 28 66 28 126 0 77 5 93 89 265 22 47 41 91 41 97 0 7 3 13 8 13 8 0
32 49 32 67 0 7 5 13 10 13 6 0 10 7 10 15 0 8 4 24 10 35 6 11 15 29 20 40 5
11 10 27 10 35 0 8 5 15 10 15 6 0 10 7 10 16 0 9 10 30 23 47 38 55 31 114
-29 232 -68 132 -104 240 -104 313 0 49 7 74 45 150 24 50 66 124 93 164 45
69 102 178 102 197 0 5 22 56 49 113 52 110 111 282 111 323 0 29 6 30 48 9
35 -17 37 -26 22 -92 -15 -64 8 -102 63 -102 l27 0 0 -126 c0 -155 10 -192 66
-244 36 -33 51 -40 84 -40 23 0 59 9 81 21 73 37 92 65 128 184 31 106 32 115
28 250 -4 135 -12 199 -26 220 -8 10 -24 61 -66 208 -14 49 -35 104 -46 123
-10 19 -19 40 -19 47 0 19 -80 106 -113 124 -43 22 -170 28 -279 13 l-94 -12
-55 53 c-30 30 -69 75 -86 100 -41 60 -94 105 -131 114 -27 5 -30 10 -36 60
-8 71 -43 162 -66 175 -13 7 -36 4 -82 -11 -35 -11 -77 -24 -94 -28 l-32 -8
32 66 c38 81 38 138 1 304 -14 62 -30 135 -36 162 -33 149 -88 265 -144 303
-18 13 -58 30 -89 39 -55 15 -59 19 -81 68 -25 57 -56 85 -93 85 -22 0 -24 3
-18 31 3 17 6 42 6 55 0 18 6 24 23 24 43 1 58 23 55 81 -2 44 -7 56 -26 65
-33 16 -35 20 -22 44 19 36 -10 58 -88 65 -138 12 -179 13 -237 4z m-76 -136
c-1 -60 -2 -64 -9 -28 -4 22 -10 52 -15 68 -6 21 -4 27 9 27 13 0 16 -12 15
-67z m-62 -65 c-3 -8 -6 -5 -6 6 -1 11 2 17 5 13 3 -3 4 -12 1 -19z m80 -70
c-3 -8 -6 -5 -6 6 -1 11 2 17 5 13 3 -3 4 -12 1 -19z m113 -188 c0 -5 -6 -10
-14 -10 -8 0 -18 5 -21 10 -3 6 3 10 14 10 12 0 21 -4 21 -10z m-113 -16 c2
-6 -5 -14 -16 -17 -12 -3 -25 -17 -31 -32 -5 -14 -14 -23 -20 -20 -28 17 8 88
43 83 11 -2 22 -8 24 -14z m-107 -182 c-1 -16 -30 -43 -39 -37 -7 4 -5 14 5
30 14 22 35 26 34 7z m-910 -87 c-60 -61 -90 -79 -90 -55 0 6 10 18 21 28 12
9 44 36 71 60 74 64 72 41 -2 -33z m842 -40 c-7 -14 -12 -47 -12 -73 0 -26 -5
-63 -11 -82 -7 -19 -15 -62 -19 -95 -6 -50 -7 -41 -8 60 -2 120 9 197 30 223
19 22 34 -3 20 -33z m682 -20 c10 -33 23 -68 27 -77 5 -10 8 -30 8 -45 -1 -21
-3 -23 -6 -8 -3 11 -9 24 -14 30 -5 5 -9 22 -9 37 0 15 -4 28 -10 28 -5 0 -10
7 -10 15 0 8 -9 31 -20 50 -19 34 -19 36 -3 33 12 -2 24 -23 37 -63z m-1644
-35 c0 -5 -2 -10 -4 -10 -3 0 -8 5 -11 10 -3 6 -1 10 4 10 6 0 11 -4 11 -10z
m-65 -40 c-3 -5 -11 -10 -16 -10 -6 0 -7 5 -4 10 3 6 11 10 16 10 6 0 7 -4 4
-10z m1180 -13 c12 -19 35 -78 61 -158 3 -8 -1 -20 -8 -27 -11 -9 -20 8 -47
85 -18 52 -35 102 -38 109 -9 23 15 16 32 -9z m582 -109 c-3 -7 -5 -2 -5 12 0
14 2 19 5 13 2 -7 2 -19 0 -25z m33 -68 c8 0 60 -132 60 -155 0 -8 -26 -43
-57 -78 -32 -35 -79 -100 -105 -143 -55 -92 -98 -153 -98 -137 0 23 107 202
156 262 49 60 74 96 74 107 0 8 -11 47 -25 88 -14 41 -24 83 -24 93 1 10 4 6
6 -9 2 -16 8 -28 13 -28z m-2001 23 c-32 -41 -69 -56 -69 -29 0 17 39 45 64
45 16 1 17 -1 5 -16z m646 -83 c-3 -5 1 -26 9 -47 25 -67 65 -216 75 -283 6
-36 13 -125 16 -198 5 -107 3 -133 -7 -130 -8 3 -16 30 -20 64 -17 148 -89
470 -123 552 -19 43 -19 41 8 51 24 9 50 4 42 -9z m825 -29 c0 -11 -5 -23 -11
-27 -15 -9 -33 12 -26 30 9 23 37 20 37 -3z m480 -43 c-1 -28 -2 -30 -11 -15
-6 10 -8 25 -5 33 9 24 16 16 16 -18z m-1425 -8 c28 -53 132 -487 122 -512 -3
-7 -8 2 -12 20 -4 17 -13 32 -20 32 -54 0 -245 326 -245 417 0 38 3 43 28 49
15 3 36 9 47 14 33 15 66 7 80 -20z m864 -132 c1 -18 -4 -28 -14 -28 -31 0
-48 83 -23 108 10 10 15 6 25 -20 6 -18 12 -45 12 -60z m106 36 c2 -38 -4 -48
-21 -33 -8 6 -14 27 -14 46 0 29 3 33 17 25 9 -5 17 -23 18 -38z m-1091 -345
c22 -34 44 -66 50 -73 17 -17 58 -68 86 -106 14 -19 40 -51 58 -71 28 -32 32
-43 32 -93 0 -42 -4 -56 -14 -56 -39 0 -246 323 -246 383 0 9 -4 19 -10 22
-12 7 -14 55 -2 55 4 0 25 -28 46 -61z m1383 29 c-3 -8 -6 -5 -6 6 -1 11 2 17
5 13 3 -3 4 -12 1 -19z m-20 -40 c-3 -8 -6 -5 -6 6 -1 11 2 17 5 13 3 -3 4
-12 1 -19z m-119 -165 c0 -43 -5 -84 -10 -90 -19 -24 -30 -13 -24 25 3 20 8
61 12 90 9 78 23 63 22 -25z m87 -62 c-9 -8 -34 23 -36 44 -1 11 -1 31 0 45 2
19 7 13 22 -29 10 -30 17 -57 14 -60z m-975 -144 c0 -34 -9 -111 -20 -171 -11
-60 -20 -113 -20 -118 0 -12 -52 -30 -61 -21 -4 4 3 96 17 203 13 107 24 199
24 203 0 5 14 -1 30 -13 28 -20 30 -26 30 -83z m881 2 c-15 -51 -22 -300 -12
-424 9 -123 14 -148 41 -203 19 -38 28 -71 25 -83 -8 -24 -24 -25 -31 -1 -3 9
-14 36 -24 59 -43 95 -53 192 -46 433 7 220 12 247 41 236 6 -2 8 -10 6 -17z
m-929 -374 c2 -12 -49 -31 -58 -22 -4 3 -4 13 0 22 6 18 55 18 58 0z m-8 -192
c-7 -161 9 -477 29 -563 24 -104 39 -253 28 -282 -8 -20 -4 -33 21 -72 25 -38
29 -51 21 -69 -6 -12 -8 -83 -6 -162 4 -163 -9 -246 -21 -130 -20 200 -28 266
-43 328 -13 57 -14 77 -4 120 11 44 10 59 -3 96 -22 59 -43 153 -61 267 -16
94 -31 565 -20 584 3 5 19 10 35 10 l29 0 -5 -127z m1462 -213 c19 -118 17
-257 -6 -355 -11 -47 -20 -108 -20 -136 0 -30 8 -65 20 -89 11 -22 20 -48 20
-59 0 -28 18 -66 60 -131 48 -73 92 -169 110 -240 14 -53 7 -168 -17 -285 -17
-81 -65 -186 -110 -239 -19 -23 -24 -38 -21 -69 4 -46 -9 -55 -40 -29 -31 27
-29 68 4 85 42 22 124 214 154 362 23 109 12 194 -35 280 -62 114 -83 150
-119 209 -23 39 -36 72 -36 95 0 20 -4 52 -9 71 -4 20 -2 87 5 160 17 154 19
363 4 410 -13 44 -13 42 7 38 13 -2 20 -21 29 -78z m-1025 40 c5 0 9 -7 9 -15
0 -8 4 -23 9 -33 6 -9 17 -54 25 -100 19 -99 22 -421 5 -471 -9 -25 -8 -43 4
-84 9 -29 16 -63 15 -77 -1 -25 14 -140 32 -235 5 -27 9 -84 8 -125 0 -73 -1
-74 -8 -25 -29 182 -52 293 -85 405 -18 63 -14 123 10 150 14 15 16 28 10 57
-5 21 -9 130 -9 243 -2 197 -7 243 -37 302 -5 10 -8 23 -8 30 1 7 3 5 6 -4 2
-10 9 -18 14 -18z m637 -167 c11 -32 39 -101 62 -153 23 -52 44 -113 47 -135
l4 -40 -16 35 c-9 19 -21 43 -26 52 -5 10 -9 24 -9 32 0 8 -9 31 -20 53 -46
90 -90 195 -84 204 12 20 23 7 42 -48z m139 -442 c-6 -40 -29 -111 -37 -111
-3 0 -13 7 -23 14 -17 13 -16 17 14 80 33 70 54 78 46 17z m-79 -154 c9 -10 6
-24 -9 -55 -20 -39 -20 -44 -5 -67 19 -30 20 -35 3 -35 -23 0 -50 38 -49 67 1
33 29 103 41 103 5 0 13 -6 19 -13z m-571 -539 c-2 -18 -4 -6 -4 27 0 33 2 48
4 33 2 -15 2 -42 0 -60z m20 -130 c-2 -18 -4 -6 -4 27 0 33 2 48 4 33 2 -15 2
-42 0 -60z m2 -120 c-1 -29 1 -65 6 -80 6 -24 4 -28 -12 -28 -34 0 -56 35 -50
77 5 29 38 79 55 82 2 1 2 -23 1 -51z m-487 -115 c8 -10 6 -13 -4 -13 -34 0
-51 53 -25 79 10 10 13 6 15 -21 2 -18 8 -39 14 -45z m457 -51 c11 -22 -5
-105 -39 -195 -16 -42 -26 -57 -41 -57 -10 0 -19 6 -19 13 -1 21 75 257 82
257 4 0 12 -8 17 -18z m-461 -70 c-6 -20 -19 -59 -29 -85 -11 -26 -19 -61 -19
-78 0 -38 -16 -69 -36 -69 -29 0 -26 33 16 148 23 64 44 123 46 131 3 10 7 11
18 2 11 -9 12 -20 4 -49z m1347 48 c10 -16 -87 -210 -103 -207 -17 3 -16 6 37
119 46 97 54 108 66 88z"/>
<path d="M2605 5661 c-53 -30 -65 -50 -42 -72 7 -8 16 -22 20 -31 3 -9 23 -26
44 -36 43 -21 133 -71 148 -82 6 -4 25 -12 43 -18 l33 -11 -37 35 c-20 20 -73
54 -118 75 -53 26 -80 45 -78 54 2 9 -5 15 -18 15 -37 0 -23 36 28 69 58 38
45 39 -23 2z"/>
<path d="M2740 5680 c0 -5 7 -7 15 -4 8 4 15 8 15 10 0 2 -7 4 -15 4 -8 0 -15
-4 -15 -10z"/>
<path d="M2685 5640 c-3 -6 1 -7 9 -4 18 7 21 14 7 14 -6 0 -13 -4 -16 -10z"/>
<path d="M2635 5610 c-3 -5 -1 -10 4 -10 6 0 11 5 11 10 0 6 -2 10 -4 10 -3 0
-8 -4 -11 -10z"/>
</g>
</svg>
